<?xml version="1.0" encoding="UTF-8"?>
<svg id="Layer_1" data-name="Layer 1" xmlns="http://www.w3.org/2000/svg" viewBox="0 0 99.09 122.88">
  <defs>
    <style>
      .cls-1 {
        fill: #fff;
      }
    </style>
  </defs>
  <path class="cls-1" d="m64.64,13l22.13,23.21h-22.13V13Zm-22.06,58.67c-1.17,1.36-3.23,1.51-4.58.33s-1.51-3.23-.33-4.58l9.42-10.91c1.18-1.36,3.23-1.5,4.59-.33.14.13.27.27.4.41l9.3,10.28c1.2,1.33,1.1,3.38-.23,4.58-1.33,1.2-3.38,1.1-4.58-.23h0l-3.76-4.15v15.45c0,1.8-1.46,3.26-3.26,3.26s-3.26-1.46-3.26-3.26v-15.14s-3.7,4.29-3.7,4.29Zm-18.36,13.75c0-1.8,1.46-3.26,3.26-3.26s3.26,1.46,3.26,3.26v7.46h37.62v-7.46c-.1-1.8,1.28-3.34,3.07-3.44,1.8-.1,3.34,1.28,3.44,3.07,0,.12,0,.24,0,.36v10.72c0,1.8-1.46,3.26-3.26,3.26H27.48c-1.8,0-3.26-1.46-3.26-3.26h0v-10.72Zm74.86-46.23c.15-.57-1.18-2.07-2.68-3.56L63.8,1.36c-.68-.85-1.71-1.35-2.8-1.36H6.62C2.96,0,0,2.96,0,6.62h0v109.64c0,3.66,2.96,6.62,6.62,6.62h85.84c3.66,0,6.62-2.96,6.62-6.62h0V39.19Zm-7.4,4.42v71.87H7.4V7.37h49.85v32.53c0,2.05,1.66,3.71,3.71,3.71.01,0,.03,0,.04,0h30.68Z"/>
</svg>